<svg width="32" height="32" viewBox="0 0 32 32" fill="none" xmlns="http://www.w3.org/2000/svg">
<path fill-rule="evenodd" clip-rule="evenodd" d="M21.4997 15.371C21.3986 15.2909 21.2919 15.2109 21.1851 15.1308C21.0784 15.0507 20.9717 14.9707 20.8707 14.8906C20.6909 13.747 20.264 12.6948 19.635 11.7798C19.635 12.1915 19.5901 12.9235 19.4778 13.8842C19.468 13.9537 19.4583 14.0253 19.4483 14.0986C19.4123 14.3633 19.3733 14.6498 19.3205 14.9364C19.1857 15.6912 19.006 16.5146 18.7589 17.4067V17.4068V17.4069L18.7588 17.4069V17.407L18.7588 17.407V17.4071V17.4071L18.7587 17.4072V17.4073V17.4073C18.6913 17.6587 18.624 17.9101 18.5342 18.1615V17.8871V17.5439C18.5567 17.0179 18.5567 16.4918 18.5567 15.9657C18.5567 15.4396 18.5567 14.9135 18.5342 14.4103C18.5342 14.0214 18.5117 13.6097 18.4893 13.2209C18.4444 12.2145 18.3545 11.2538 18.2646 10.3159C18.2646 10.3159 18.2422 10.1101 18.2197 10.0186L18.1523 9.53823L19.6125 9.03503C20.0619 9.85846 20.8931 10.4532 21.8591 10.5447C21.904 10.5447 21.9546 10.5504 22.0051 10.5561C22.0557 10.5618 22.1062 10.5675 22.1511 10.5675C23.544 10.5675 24.7122 9.584 25.0043 8.25731C25.0492 8.05149 25.0716 7.82274 25.0716 7.594C25.0716 7.38811 25.0492 7.18229 25.0043 6.99926C24.8021 5.97 24.0607 5.12366 23.0722 4.78056C22.7802 4.68906 22.4657 4.62045 22.1287 4.62045C20.5112 4.62045 19.2082 5.94709 19.2082 7.594C19.2082 7.77697 19.2306 7.95994 19.2531 8.14297C18.9588 8.24286 18.6644 8.35486 18.3614 8.47017L18.3613 8.47023C18.2481 8.51331 18.1336 8.55686 18.0175 8.60046C17.2312 3.49964 15.6362 0 13.8165 0C11.9968 0 10.4017 3.47677 9.61542 8.57754C4.8977 6.7248 1.14597 6.38171 0.224886 7.98286C-0.6962 9.584 1.46048 12.7177 5.4144 15.9886C1.46048 19.2366 -0.6962 22.3474 0.20242 23.9714C1.1235 25.5954 4.87523 25.2523 9.61542 23.3995C10.4017 28.5003 11.9968 32 13.8165 32C15.6362 32 17.2312 28.5233 18.0175 23.4225C22.7353 25.2752 26.487 25.6183 27.4081 24.0171C28.3741 22.3703 26.195 19.2366 22.2635 15.9886C26.2174 12.7405 28.3741 9.62971 27.4754 8.00571C27.161 7.45674 26.5319 7.13651 25.6558 7.02217C25.7007 7.25091 25.7456 7.4796 25.7456 7.73126C25.7456 8.00571 25.7007 8.28017 25.6333 8.53183C25.7906 8.62331 25.9029 8.73766 25.9703 8.89777C26.6667 10.1558 24.8245 12.6719 21.4997 15.371ZM5.52673 16.0801C5.50426 16.0572 5.45933 16.0114 5.4144 15.9886C5.43687 16.0114 5.4818 16.0572 5.52673 16.0801ZM13.794 15.5769H14.131C14.3781 15.5769 14.5578 15.5311 14.6477 15.4167C14.7376 15.3023 14.8049 15.1194 14.8274 14.822C14.8274 14.7617 14.8337 14.7077 14.8396 14.6567C14.8449 14.611 14.8499 14.5679 14.8499 14.5247V14.3874C14.8499 14.273 14.7825 14.1815 14.7151 14.1358C14.6252 14.0672 14.4904 14.0443 14.3107 14.0443H13.9513L13.794 15.5769ZM21.1851 6.86206L21.0503 8.16583C21.0503 8.28023 21.0503 8.37171 21.1402 8.44029V8.55469C21.1402 8.69194 21.1627 8.80629 21.2076 8.89777C21.2301 8.98926 21.2975 9.0808 21.3649 9.14937C21.4547 9.218 21.5446 9.26377 21.6569 9.30949C21.7692 9.35526 21.904 9.37811 22.0613 9.37811C22.241 9.37811 22.4207 9.3324 22.5555 9.28663C22.6903 9.24092 22.8026 9.17229 22.8925 9.05789C22.9824 8.9664 23.0498 8.85206 23.0947 8.7148C23.1397 8.57754 23.1621 8.41743 23.1845 8.25731L23.207 7.95994H22.5106L22.4657 8.30309C22.4432 8.3488 22.4432 8.41743 22.4432 8.44029C22.4432 8.44977 22.4394 8.4632 22.4348 8.47886C22.4284 8.50109 22.4207 8.52789 22.4207 8.55469C22.4109 8.57474 22.4054 8.5948 22.4004 8.61292C22.394 8.63617 22.3884 8.65623 22.3758 8.66903C22.3534 8.7148 22.3309 8.73766 22.3084 8.76057C22.2909 8.79629 22.2733 8.80411 22.2451 8.81669L22.245 8.81674C22.2371 8.82023 22.2284 8.82417 22.2186 8.82914C22.1736 8.85206 22.1287 8.85206 22.0838 8.85206C21.949 8.85206 21.8816 8.80629 21.8366 8.7148C21.8142 8.66903 21.7917 8.57754 21.7917 8.48606V8.30309L21.949 6.67903C21.949 6.65617 21.9546 6.63331 21.9602 6.61046C21.9658 6.58754 21.9714 6.56469 21.9714 6.54183C21.9714 6.49606 21.9714 6.45034 21.9939 6.40457C22.0037 6.38451 22.0093 6.36446 22.0143 6.34634C22.0207 6.32309 22.0262 6.30303 22.0388 6.29023C22.0613 6.24446 22.0838 6.2216 22.1062 6.19869C22.1238 6.16297 22.1413 6.15514 22.1696 6.14257C22.1775 6.13903 22.1863 6.13509 22.1961 6.13011C22.241 6.1072 22.2859 6.1072 22.3309 6.1072H22.4207C22.432 6.1072 22.4432 6.11291 22.4545 6.11863C22.4657 6.1244 22.4769 6.13011 22.4881 6.13011L22.533 6.17583C22.533 6.18726 22.5387 6.19297 22.5443 6.19869C22.5499 6.20446 22.5555 6.21017 22.5555 6.2216C22.578 6.24446 22.578 6.26731 22.578 6.29023V6.3588V6.45034V6.54183V6.63331L22.533 6.9764H23.252L23.2969 6.65617V6.45034C23.2969 6.3588 23.2969 6.29023 23.2745 6.2216C23.252 6.1072 23.207 5.99286 23.1397 5.90137C23.0722 5.78697 22.9824 5.71834 22.8476 5.67262C22.7128 5.62687 22.5555 5.604 22.3758 5.604C22.1736 5.604 21.9939 5.64975 21.8591 5.6955C21.7018 5.76411 21.5895 5.83274 21.4997 5.94709C21.4098 6.06149 21.3424 6.19869 21.2975 6.33594C21.2301 6.49606 21.2076 6.65617 21.1851 6.86206ZM1.775 8.82914C2.4939 7.594 5.5492 7.93709 9.52558 9.51537C9.48063 9.78983 9.45821 10.0415 9.43573 10.3159C8.582 11.025 7.8856 11.9171 7.41385 12.9464C7.77328 12.7405 8.40231 12.4203 9.27846 12.0543C9.46437 11.967 9.66848 11.8889 9.87919 11.8082H9.87924H9.8793L9.87958 11.8081C9.99978 11.7621 10.1221 11.7153 10.2445 11.6655C10.9409 11.4139 11.7496 11.1394 12.6258 10.9106C12.7494 10.8763 12.8729 10.8478 12.9965 10.8191C13.1201 10.7906 13.2436 10.762 13.3672 10.7277C13.3672 10.7277 13.5244 10.6362 13.8614 10.4761C13.5244 10.659 13.1874 10.8421 12.828 11.025C12.7575 11.0609 12.687 11.1003 12.6152 11.1405L12.6151 11.1405H12.6151L12.615 11.1406L12.6149 11.1406C12.5037 11.2028 12.3891 11.2668 12.2663 11.3224C12.2214 11.3453 12.1765 11.3681 12.1091 11.4139C11.9968 11.471 11.8901 11.5339 11.7834 11.5969H11.7833V11.5969H11.7833C11.6766 11.6598 11.5699 11.7227 11.4576 11.7798C11.2835 11.8862 11.1094 11.9891 10.9366 12.0913C10.6634 12.2527 10.3936 12.4123 10.1321 12.5804C10.0423 12.6262 9.97486 12.6719 9.88501 12.7405L9.68285 12.8778L9.14366 13.2209C8.40231 13.7012 7.59354 14.273 6.80723 14.8678C6.64996 14.9821 6.49275 15.0965 6.35795 15.2109C6.34674 15.2109 6.34108 15.2166 6.33548 15.2223C6.32987 15.228 6.32427 15.2337 6.313 15.2337C6.29058 15.2566 6.26811 15.2738 6.24563 15.2909C6.22316 15.3081 6.20068 15.3253 6.1782 15.3481C2.89827 12.6262 1.05611 10.0872 1.775 8.82914ZM15.8608 14.5247C15.8608 14.6162 15.8608 14.7305 15.8384 14.8449C15.8159 15.1194 15.7485 15.371 15.6587 15.5539C15.5688 15.7598 15.4564 15.8971 15.2992 16.0114C15.142 16.1258 14.9847 16.2173 14.8049 16.263C14.6252 16.3088 14.423 16.3317 14.1984 16.3317H13.7041L13.457 18.7105H12.3787L12.9403 13.2666H14.5803C15.4564 13.2666 15.8608 13.6783 15.8608 14.5247ZM9.16614 14.376C9.17174 14.3703 9.17735 14.3646 9.18861 14.3646C9.16614 14.3646 9.14366 14.3874 9.14366 14.3874C9.09871 14.4103 9.07629 14.4331 9.05382 14.4561C9.09871 14.4331 9.12119 14.4103 9.14366 14.3874C9.15487 14.3874 9.16053 14.3817 9.16614 14.376ZM13.8614 30.193C12.4461 30.193 11.2105 27.2881 10.559 23.0107C10.6713 22.965 10.7893 22.9135 10.9072 22.8621L10.9073 22.862L10.9074 22.8619C11.0253 22.8105 11.1431 22.7591 11.2554 22.7134C12.0642 23.0336 12.9403 23.2166 13.8614 23.2166C14.0861 23.2166 14.3107 23.2166 14.5354 23.1937C14.1759 22.965 13.5694 22.5761 12.828 22.0043C12.7216 21.9156 12.6067 21.8269 12.4872 21.7346L12.4869 21.7343L12.4868 21.7342L12.4867 21.7342C12.3289 21.6123 12.1628 21.484 11.9968 21.341C11.4351 20.8606 10.8061 20.2888 10.1771 19.6254C9.99734 19.4425 9.81765 19.2595 9.66037 19.0536C9.66037 19.0536 9.84012 19.168 10.1771 19.3738C10.1996 19.3853 10.2164 19.3967 10.2332 19.4082C10.2501 19.4196 10.2669 19.431 10.2894 19.4425C10.5238 19.5969 10.7667 19.7427 11.0128 19.8905L11.0129 19.8905C11.1678 19.9835 11.3239 20.0773 11.4801 20.1744C11.9294 20.4489 12.3787 20.7005 12.828 20.9293C12.9965 21.0207 13.1706 21.1122 13.3448 21.2037C13.5189 21.2952 13.6929 21.3867 13.8614 21.4782C14.3781 21.7527 14.8947 22.0042 15.4114 22.2558L15.4115 22.2559C15.58 22.3359 15.7541 22.416 15.9281 22.496L15.9283 22.4961C16.1023 22.5761 16.2764 22.6562 16.4449 22.7362C16.5078 22.7619 16.5725 22.7875 16.6385 22.8137C16.808 22.8808 16.9859 22.9513 17.1638 23.0336C16.5123 27.3109 15.2768 30.193 13.8614 30.193ZM11.2554 22.7134C11.1707 22.6774 11.086 22.6415 11.0013 22.6042C11.0831 22.6422 11.1672 22.6789 11.2554 22.7134ZM11.0013 22.6042C10.8164 22.5226 10.6315 22.4343 10.4467 22.3245C10.5009 22.3522 10.5543 22.3798 10.6073 22.4072C10.7381 22.4749 10.8667 22.5415 11.0013 22.6042ZM9.94079 22.221L9.94068 22.221C9.78951 22.2845 9.64628 22.3445 9.5031 22.3931C5.52673 23.9485 2.44896 24.3145 1.73007 23.0565C1.03364 21.7984 2.87581 19.2823 6.20068 16.5833C6.30179 16.6633 6.40851 16.7434 6.51522 16.8234C6.62194 16.9035 6.72865 16.9835 6.82971 17.0636C7.0993 18.8935 8.04288 20.5175 9.41326 21.6154C9.6379 21.7984 9.88502 21.9814 10.1321 22.1415C10.0668 22.1682 10.0033 22.1948 9.94112 22.2209L9.94079 22.221ZM17.2087 9.28663L17.2088 9.28669C17.2256 9.40103 17.2425 9.51537 17.2537 9.62971C17.2537 9.65029 17.2582 9.67086 17.2632 9.69349C17.2693 9.72126 17.2762 9.75206 17.2762 9.78983C17.2762 9.72126 17.2762 9.67549 17.2537 9.62971C17.2312 9.37823 17.2088 9.1496 17.1863 8.92097V8.92069C16.5348 4.64331 15.2992 1.73838 13.8839 1.73838C12.4686 1.73838 11.233 4.62045 10.5815 8.89777C10.5365 9.12651 10.4916 9.35526 10.4692 9.60686C10.7387 9.4696 11.0083 9.3324 11.3003 9.218C12.0866 8.92069 12.9628 8.73766 13.8614 8.73766C14.7825 8.73766 15.6587 8.92069 16.4674 9.24092C16.5797 9.19514 16.6977 9.14366 16.8156 9.09223C16.9335 9.04074 17.0515 8.98926 17.1638 8.94354C17.1751 9.05789 17.1919 9.17229 17.2087 9.28663ZM25.9478 23.1022C25.2289 24.3374 22.1736 23.9943 18.1973 22.416C18.2422 22.1415 18.2646 21.8899 18.2871 21.6154C19.635 20.5175 20.5786 18.9163 20.8707 17.0865C20.9155 16.7891 20.938 16.4689 20.9605 16.1487C21.0871 16.2614 21.2248 16.3629 21.3579 16.461H21.358C21.4139 16.5021 21.469 16.5427 21.5221 16.5833C24.8245 19.3281 26.6667 21.8442 25.9478 23.1022Z" fill="url(#paint0_linear_2_105)"/>
<defs>
<linearGradient id="paint0_linear_2_105" x1="27.6878" y1="-0.0204099" x2="0.0310967" y2="-0.0204099" gradientUnits="userSpaceOnUse">
<stop stop-color="#4252D1"/>
<stop offset="1" stop-color="#609BDB"/>
</linearGradient>
</defs>
</svg>
