<svg width="15" height="15" viewBox="0 0 15 15" fill="none" xmlns="http://www.w3.org/2000/svg">
<g clip-path="url(#clip0_2_155)">
<g clip-path="url(#clip1_2_155)">
<path d="M11.6493 3.05584C9.13779 0.544249 5.07225 0.543848 2.56031 3.05584C0.0486891 5.56744 0.0483128 9.63292 2.56031 12.1449C5.07185 14.6565 9.13739 14.6569 11.6493 12.1449C14.161 9.6333 14.1613 5.56781 11.6493 3.05584ZM11.3807 11.2287C11.0804 10.9602 10.7592 10.7226 10.4207 10.5178C10.6444 9.7448 10.777 8.89416 10.8084 8.00993H12.6979C12.6125 9.2018 12.1545 10.3198 11.3807 11.2287ZM1.51173 8.00993H3.40126C3.4326 8.89416 3.56518 9.7448 3.78896 10.5178C3.45039 10.7226 3.12918 10.9602 2.8289 11.2287C2.05511 10.3198 1.59719 9.2018 1.51173 8.00993ZM2.82892 3.97199C3.12921 4.24051 3.45041 4.47814 3.78898 4.68293C3.5652 5.45593 3.43262 6.30657 3.40129 7.1908H1.51173C1.59719 5.99896 2.05511 4.88091 2.82892 3.97199ZM6.69527 4.76758C6.02732 4.71981 5.38327 4.55529 4.7862 4.28389C5.13345 3.38969 5.7736 2.31721 6.69527 2.05143V4.76758ZM6.69527 5.58824V7.19083H4.22074C4.24909 6.44284 4.35507 5.72458 4.53133 5.06738C5.20985 5.364 5.93958 5.54114 6.69527 5.58824ZM6.69527 8.00993V9.61252C5.93958 9.65962 5.20985 9.83676 4.53133 10.1334C4.35507 9.47618 4.24909 8.75792 4.22074 8.00993H6.69527ZM6.69527 10.4332V13.1493C5.77365 12.8835 5.1335 11.8112 4.7862 10.9169C5.38327 10.6455 6.02732 10.481 6.69527 10.4332ZM7.51437 10.4332C8.18233 10.481 8.82637 10.6455 9.42344 10.9169C9.07617 11.8111 8.43604 12.8835 7.51437 13.1493V10.4332ZM7.51437 9.61252V8.00993H9.98891C9.96055 8.75792 9.85457 9.47618 9.67831 10.1334C8.99979 9.83676 8.27007 9.65962 7.51437 9.61252ZM7.51437 7.19083V5.58824C8.27007 5.54114 8.99979 5.364 9.67831 5.06738C9.85457 5.72458 9.96055 6.44284 9.98891 7.19083H7.51437ZM7.51437 4.76758V2.05145C8.43604 2.31723 9.07619 3.38972 9.42344 4.28391C8.82637 4.55529 8.18233 4.71981 7.51437 4.76758ZM9.35399 2.46035C9.87826 2.68992 10.3674 3.00122 10.8058 3.38746C10.5971 3.57147 10.3769 3.73832 10.1469 3.88754C9.94274 3.38192 9.68188 2.89055 9.35399 2.46035ZM4.06267 3.88754C3.83271 3.73832 3.61252 3.57147 3.40379 3.38746C3.84225 3.00122 4.33136 2.68992 4.85562 2.46035C4.52774 2.8906 4.26688 3.38197 4.06267 3.88754ZM4.06269 11.3132C4.26688 11.8188 4.52779 12.3102 4.85565 12.7404C4.33138 12.5108 3.84227 12.1995 3.40382 11.8133C3.61252 11.6293 3.83274 11.4624 4.06269 11.3132ZM10.1469 11.3132C10.3769 11.4624 10.5971 11.6293 10.8058 11.8133C10.3674 12.1995 9.87826 12.5108 9.35399 12.7404C9.68185 12.3102 9.94274 11.8188 10.1469 11.3132ZM10.8084 7.19083C10.777 6.3066 10.6445 5.45593 10.4207 4.68295C10.7593 4.47816 11.0804 4.24053 11.3807 3.97202C12.1545 4.88091 12.6125 5.99896 12.6979 7.19083H10.8084Z" fill="white"/>
</g>
</g>
<defs>
<clipPath id="clip0_2_155">
<rect width="14.2101" height="14.2101" fill="white" transform="translate(-0.000244141 0.495789)"/>
</clipPath>
<clipPath id="clip1_2_155">
<rect width="12.8567" height="12.8567" fill="white" transform="translate(0.676331 1.17249)"/>
</clipPath>
</defs>
</svg>
